<svg width="120" height="40" viewBox="0 0 120 40" fill="none" xmlns="http://www.w3.org/2000/svg">
<path d="M8.51544 39.1251C8.20821 39.1251 7.90841 39.1212 7.60359 39.1144C6.97214 39.1063 6.34216 39.0517 5.71883 38.9513C5.1376 38.852 4.57455 38.6674 4.04824 38.4034C3.52676 38.1416 3.05113 37.7984 2.63957 37.3868C2.22205 36.9801 1.87445 36.5084 1.61053 35.9903C1.34371 35.4689 1.15905 34.91 1.06299 34.3331C0.959259 33.7132 0.903134 33.0864 0.895103 32.4581C0.88871 32.2472 0.880341 31.545 0.880341 31.545V8.44446C0.880341 8.44446 0.889254 7.75305 0.895153 7.54992C0.902843 6.9226 0.958642 6.29678 1.06207 5.67785C1.1583 5.09937 1.3431 4.53887 1.61007 4.01575C1.87301 3.49807 2.21869 3.02598 2.63369 2.6178C3.04823 2.20574 3.52538 1.86073 4.04775 1.59533C4.57285 1.33222 5.13483 1.14885 5.71489 1.05139C6.34027 0.949958 6.97243 0.895118 7.60607 0.887332L8.51593 0.875122H112.143L113.064 0.887822C113.692 0.895221 114.318 0.949572 114.938 1.05041C115.524 1.1491 116.092 1.33374 116.623 1.59826C117.669 2.13311 118.521 2.97929 119.058 4.01819C119.321 4.5377 119.503 5.09363 119.598 5.66711C119.702 6.29111 119.761 6.92186 119.773 7.55432C119.776 7.83752 119.776 8.14172 119.776 8.44446C119.784 8.81946 119.784 9.17639 119.784 9.53625V30.4649C119.784 30.8282 119.784 31.1827 119.776 31.5401C119.776 31.8653 119.776 32.1632 119.772 32.4698C119.76 33.091 119.703 33.7105 119.6 34.3233C119.505 34.9044 119.322 35.4676 119.055 35.9933C118.789 36.5057 118.444 36.9734 118.031 37.379C117.619 37.7928 117.143 38.1381 116.62 38.4015C116.09 38.6675 115.523 38.8529 114.938 38.9513C114.315 39.0523 113.685 39.1068 113.053 39.1144C112.758 39.1212 112.449 39.1251 112.148 39.1251L111.055 39.1271L8.51544 39.1251Z" fill="black"/>
</svg>
